<mxfile host="app.diagrams.net" modified="2022-12-12T09:06:31.479Z" agent="5.0 (Macintosh; Intel Mac OS X 10_15_7) AppleWebKit/537.36 (KHTML, like Gecko) Chrome/108.0.0.0 Safari/537.36" etag="FzuD8ip_hfO4eoHreOze" version="20.6.2" type="github" pages="3">
  <diagram id="prtHgNgQTEPvFCAcTncT" name="数据流向讨论">
    <mxGraphModel dx="1132" dy="774" grid="1" gridSize="10" guides="1" tooltips="1" connect="1" arrows="1" fold="1" page="1" pageScale="1" pageWidth="827" pageHeight="1169" math="0" shadow="0">
      <root>
        <mxCell id="0" />
        <mxCell id="1" parent="0" />
        <mxCell id="F0TrI8xR8DrndN0UvMLU-91" value="" style="rounded=0;whiteSpace=wrap;html=1;" vertex="1" parent="1">
          <mxGeometry x="430" y="680" width="350" height="490" as="geometry" />
        </mxCell>
        <mxCell id="F0TrI8xR8DrndN0UvMLU-90" value="" style="rounded=0;whiteSpace=wrap;html=1;" vertex="1" parent="1">
          <mxGeometry x="20" y="680" width="330" height="510" as="geometry" />
        </mxCell>
        <mxCell id="F0TrI8xR8DrndN0UvMLU-34" value="数据处理逻辑分布在前端和后端" style="text;html=1;strokeColor=none;fillColor=none;align=center;verticalAlign=middle;whiteSpace=wrap;rounded=0;" vertex="1" parent="1">
          <mxGeometry x="250" y="10" width="200" height="30" as="geometry" />
        </mxCell>
        <mxCell id="F0TrI8xR8DrndN0UvMLU-36" value="" style="group" vertex="1" connectable="0" parent="1">
          <mxGeometry x="30" y="60" width="180" height="430" as="geometry" />
        </mxCell>
        <mxCell id="F0TrI8xR8DrndN0UvMLU-35" value="" style="rounded=0;whiteSpace=wrap;html=1;" vertex="1" parent="F0TrI8xR8DrndN0UvMLU-36">
          <mxGeometry width="180" height="430" as="geometry" />
        </mxCell>
        <mxCell id="F0TrI8xR8DrndN0UvMLU-39" style="edgeStyle=orthogonalEdgeStyle;rounded=0;orthogonalLoop=1;jettySize=auto;html=1;exitX=0.5;exitY=1;exitDx=0;exitDy=0;entryX=0.5;entryY=0;entryDx=0;entryDy=0;" edge="1" parent="F0TrI8xR8DrndN0UvMLU-36" source="F0TrI8xR8DrndN0UvMLU-1" target="F0TrI8xR8DrndN0UvMLU-2">
          <mxGeometry relative="1" as="geometry" />
        </mxCell>
        <mxCell id="F0TrI8xR8DrndN0UvMLU-1" value="前端页面渲染" style="rounded=0;whiteSpace=wrap;html=1;" vertex="1" parent="F0TrI8xR8DrndN0UvMLU-36">
          <mxGeometry x="30" y="25" width="120" height="60" as="geometry" />
        </mxCell>
        <mxCell id="F0TrI8xR8DrndN0UvMLU-42" style="edgeStyle=orthogonalEdgeStyle;rounded=0;orthogonalLoop=1;jettySize=auto;html=1;exitX=0.5;exitY=1;exitDx=0;exitDy=0;" edge="1" parent="F0TrI8xR8DrndN0UvMLU-36" source="F0TrI8xR8DrndN0UvMLU-2" target="F0TrI8xR8DrndN0UvMLU-3">
          <mxGeometry relative="1" as="geometry" />
        </mxCell>
        <mxCell id="F0TrI8xR8DrndN0UvMLU-2" value="发送http请求" style="rounded=0;whiteSpace=wrap;html=1;" vertex="1" parent="F0TrI8xR8DrndN0UvMLU-36">
          <mxGeometry x="30" y="105" width="120" height="60" as="geometry" />
        </mxCell>
        <mxCell id="F0TrI8xR8DrndN0UvMLU-43" style="edgeStyle=orthogonalEdgeStyle;rounded=0;orthogonalLoop=1;jettySize=auto;html=1;exitX=0.5;exitY=1;exitDx=0;exitDy=0;" edge="1" parent="F0TrI8xR8DrndN0UvMLU-36" source="F0TrI8xR8DrndN0UvMLU-3" target="F0TrI8xR8DrndN0UvMLU-4">
          <mxGeometry relative="1" as="geometry" />
        </mxCell>
        <mxCell id="F0TrI8xR8DrndN0UvMLU-3" value="后端检索数据库" style="rounded=0;whiteSpace=wrap;html=1;" vertex="1" parent="F0TrI8xR8DrndN0UvMLU-36">
          <mxGeometry x="30" y="185" width="120" height="55" as="geometry" />
        </mxCell>
        <mxCell id="F0TrI8xR8DrndN0UvMLU-44" style="edgeStyle=orthogonalEdgeStyle;rounded=0;orthogonalLoop=1;jettySize=auto;html=1;exitX=0.5;exitY=1;exitDx=0;exitDy=0;entryX=0.5;entryY=0;entryDx=0;entryDy=0;" edge="1" parent="F0TrI8xR8DrndN0UvMLU-36" source="F0TrI8xR8DrndN0UvMLU-4" target="F0TrI8xR8DrndN0UvMLU-5">
          <mxGeometry relative="1" as="geometry" />
        </mxCell>
        <mxCell id="F0TrI8xR8DrndN0UvMLU-4" value="返回前端" style="rounded=0;whiteSpace=wrap;html=1;" vertex="1" parent="F0TrI8xR8DrndN0UvMLU-36">
          <mxGeometry x="30" y="265" width="120" height="60" as="geometry" />
        </mxCell>
        <mxCell id="F0TrI8xR8DrndN0UvMLU-5" value="前端对数据进行拼接、二次运算" style="rounded=0;whiteSpace=wrap;html=1;" vertex="1" parent="F0TrI8xR8DrndN0UvMLU-36">
          <mxGeometry x="30" y="345" width="120" height="60" as="geometry" />
        </mxCell>
        <mxCell id="F0TrI8xR8DrndN0UvMLU-38" value="" style="group" vertex="1" connectable="0" parent="1">
          <mxGeometry x="250" y="60" width="400" height="490" as="geometry" />
        </mxCell>
        <mxCell id="F0TrI8xR8DrndN0UvMLU-37" value="" style="rounded=0;whiteSpace=wrap;html=1;" vertex="1" parent="F0TrI8xR8DrndN0UvMLU-38">
          <mxGeometry width="400" height="490" as="geometry" />
        </mxCell>
        <mxCell id="F0TrI8xR8DrndN0UvMLU-6" value="出现数据异常" style="rounded=0;whiteSpace=wrap;html=1;" vertex="1" parent="F0TrI8xR8DrndN0UvMLU-38">
          <mxGeometry x="130" y="30" width="120" height="60" as="geometry" />
        </mxCell>
        <mxCell id="F0TrI8xR8DrndN0UvMLU-7" value="前端对运算逻辑进行检查" style="rounded=0;whiteSpace=wrap;html=1;" vertex="1" parent="F0TrI8xR8DrndN0UvMLU-38">
          <mxGeometry x="30" y="110" width="120" height="60" as="geometry" />
        </mxCell>
        <mxCell id="F0TrI8xR8DrndN0UvMLU-14" style="edgeStyle=orthogonalEdgeStyle;rounded=0;orthogonalLoop=1;jettySize=auto;html=1;exitX=0;exitY=0.5;exitDx=0;exitDy=0;entryX=0.5;entryY=0;entryDx=0;entryDy=0;" edge="1" parent="F0TrI8xR8DrndN0UvMLU-38" source="F0TrI8xR8DrndN0UvMLU-6" target="F0TrI8xR8DrndN0UvMLU-7">
          <mxGeometry relative="1" as="geometry" />
        </mxCell>
        <mxCell id="F0TrI8xR8DrndN0UvMLU-8" value="后端对接口部分进行检查" style="rounded=0;whiteSpace=wrap;html=1;" vertex="1" parent="F0TrI8xR8DrndN0UvMLU-38">
          <mxGeometry x="250" y="110" width="120" height="60" as="geometry" />
        </mxCell>
        <mxCell id="F0TrI8xR8DrndN0UvMLU-15" style="edgeStyle=orthogonalEdgeStyle;rounded=0;orthogonalLoop=1;jettySize=auto;html=1;exitX=1;exitY=0.5;exitDx=0;exitDy=0;entryX=0.5;entryY=0;entryDx=0;entryDy=0;" edge="1" parent="F0TrI8xR8DrndN0UvMLU-38" source="F0TrI8xR8DrndN0UvMLU-6" target="F0TrI8xR8DrndN0UvMLU-8">
          <mxGeometry relative="1" as="geometry" />
        </mxCell>
        <mxCell id="F0TrI8xR8DrndN0UvMLU-12" style="edgeStyle=orthogonalEdgeStyle;rounded=0;orthogonalLoop=1;jettySize=auto;html=1;exitX=1;exitY=0.5;exitDx=0;exitDy=0;entryX=0;entryY=0.5;entryDx=0;entryDy=0;" edge="1" parent="F0TrI8xR8DrndN0UvMLU-38" source="F0TrI8xR8DrndN0UvMLU-10" target="F0TrI8xR8DrndN0UvMLU-8">
          <mxGeometry relative="1" as="geometry" />
        </mxCell>
        <mxCell id="F0TrI8xR8DrndN0UvMLU-18" value="N" style="edgeLabel;html=1;align=center;verticalAlign=middle;resizable=0;points=[];" vertex="1" connectable="0" parent="F0TrI8xR8DrndN0UvMLU-12">
          <mxGeometry x="-0.2041" relative="1" as="geometry">
            <mxPoint as="offset" />
          </mxGeometry>
        </mxCell>
        <mxCell id="F0TrI8xR8DrndN0UvMLU-10" value="前端问题" style="rhombus;whiteSpace=wrap;html=1;" vertex="1" parent="F0TrI8xR8DrndN0UvMLU-38">
          <mxGeometry x="50" y="190" width="80" height="80" as="geometry" />
        </mxCell>
        <mxCell id="F0TrI8xR8DrndN0UvMLU-13" style="edgeStyle=orthogonalEdgeStyle;rounded=0;orthogonalLoop=1;jettySize=auto;html=1;exitX=0.5;exitY=1;exitDx=0;exitDy=0;entryX=0.5;entryY=0;entryDx=0;entryDy=0;" edge="1" parent="F0TrI8xR8DrndN0UvMLU-38" source="F0TrI8xR8DrndN0UvMLU-7" target="F0TrI8xR8DrndN0UvMLU-10">
          <mxGeometry relative="1" as="geometry" />
        </mxCell>
        <mxCell id="F0TrI8xR8DrndN0UvMLU-11" value="前端对字段调整，进行重新构建" style="rounded=0;whiteSpace=wrap;html=1;" vertex="1" parent="F0TrI8xR8DrndN0UvMLU-38">
          <mxGeometry x="30" y="300" width="120" height="60" as="geometry" />
        </mxCell>
        <mxCell id="F0TrI8xR8DrndN0UvMLU-16" style="edgeStyle=orthogonalEdgeStyle;rounded=0;orthogonalLoop=1;jettySize=auto;html=1;exitX=0.5;exitY=1;exitDx=0;exitDy=0;entryX=0.5;entryY=0;entryDx=0;entryDy=0;" edge="1" parent="F0TrI8xR8DrndN0UvMLU-38" source="F0TrI8xR8DrndN0UvMLU-10" target="F0TrI8xR8DrndN0UvMLU-11">
          <mxGeometry relative="1" as="geometry" />
        </mxCell>
        <mxCell id="F0TrI8xR8DrndN0UvMLU-17" value="Y" style="edgeLabel;html=1;align=center;verticalAlign=middle;resizable=0;points=[];" vertex="1" connectable="0" parent="F0TrI8xR8DrndN0UvMLU-16">
          <mxGeometry x="-0.445" y="-1" relative="1" as="geometry">
            <mxPoint as="offset" />
          </mxGeometry>
        </mxCell>
        <mxCell id="F0TrI8xR8DrndN0UvMLU-21" value="后端数据问题" style="rhombus;whiteSpace=wrap;html=1;" vertex="1" parent="F0TrI8xR8DrndN0UvMLU-38">
          <mxGeometry x="270" y="190" width="80" height="80" as="geometry" />
        </mxCell>
        <mxCell id="F0TrI8xR8DrndN0UvMLU-22" style="edgeStyle=orthogonalEdgeStyle;rounded=0;orthogonalLoop=1;jettySize=auto;html=1;exitX=0.5;exitY=1;exitDx=0;exitDy=0;entryX=0.5;entryY=0;entryDx=0;entryDy=0;" edge="1" parent="F0TrI8xR8DrndN0UvMLU-38" source="F0TrI8xR8DrndN0UvMLU-8" target="F0TrI8xR8DrndN0UvMLU-21">
          <mxGeometry relative="1" as="geometry" />
        </mxCell>
        <mxCell id="F0TrI8xR8DrndN0UvMLU-24" style="edgeStyle=orthogonalEdgeStyle;rounded=0;orthogonalLoop=1;jettySize=auto;html=1;exitX=0;exitY=0.5;exitDx=0;exitDy=0;entryX=1;entryY=0.5;entryDx=0;entryDy=0;" edge="1" parent="F0TrI8xR8DrndN0UvMLU-38" source="F0TrI8xR8DrndN0UvMLU-23" target="F0TrI8xR8DrndN0UvMLU-11">
          <mxGeometry relative="1" as="geometry" />
        </mxCell>
        <mxCell id="F0TrI8xR8DrndN0UvMLU-25" value="通知前端调整" style="edgeLabel;html=1;align=center;verticalAlign=middle;resizable=0;points=[];" vertex="1" connectable="0" parent="F0TrI8xR8DrndN0UvMLU-24">
          <mxGeometry x="0.0108" relative="1" as="geometry">
            <mxPoint as="offset" />
          </mxGeometry>
        </mxCell>
        <mxCell id="F0TrI8xR8DrndN0UvMLU-23" value="调整接口" style="rounded=0;whiteSpace=wrap;html=1;" vertex="1" parent="F0TrI8xR8DrndN0UvMLU-38">
          <mxGeometry x="250" y="300" width="120" height="60" as="geometry" />
        </mxCell>
        <mxCell id="F0TrI8xR8DrndN0UvMLU-26" value="Y" style="edgeStyle=orthogonalEdgeStyle;rounded=0;orthogonalLoop=1;jettySize=auto;html=1;exitX=0.5;exitY=1;exitDx=0;exitDy=0;entryX=0.5;entryY=0;entryDx=0;entryDy=0;" edge="1" parent="F0TrI8xR8DrndN0UvMLU-38" source="F0TrI8xR8DrndN0UvMLU-21" target="F0TrI8xR8DrndN0UvMLU-23">
          <mxGeometry relative="1" as="geometry" />
        </mxCell>
        <mxCell id="F0TrI8xR8DrndN0UvMLU-27" value="部署" style="rounded=0;whiteSpace=wrap;html=1;" vertex="1" parent="F0TrI8xR8DrndN0UvMLU-38">
          <mxGeometry x="250" y="410" width="120" height="60" as="geometry" />
        </mxCell>
        <mxCell id="F0TrI8xR8DrndN0UvMLU-28" style="edgeStyle=orthogonalEdgeStyle;rounded=0;orthogonalLoop=1;jettySize=auto;html=1;exitX=0.5;exitY=1;exitDx=0;exitDy=0;entryX=0.5;entryY=0;entryDx=0;entryDy=0;" edge="1" parent="F0TrI8xR8DrndN0UvMLU-38" source="F0TrI8xR8DrndN0UvMLU-23" target="F0TrI8xR8DrndN0UvMLU-27">
          <mxGeometry relative="1" as="geometry" />
        </mxCell>
        <mxCell id="F0TrI8xR8DrndN0UvMLU-33" value="构建" style="edgeLabel;html=1;align=center;verticalAlign=middle;resizable=0;points=[];" vertex="1" connectable="0" parent="F0TrI8xR8DrndN0UvMLU-28">
          <mxGeometry x="-0.2194" y="1" relative="1" as="geometry">
            <mxPoint as="offset" />
          </mxGeometry>
        </mxCell>
        <mxCell id="F0TrI8xR8DrndN0UvMLU-32" style="edgeStyle=orthogonalEdgeStyle;rounded=0;orthogonalLoop=1;jettySize=auto;html=1;exitX=1;exitY=0.5;exitDx=0;exitDy=0;entryX=0;entryY=0.5;entryDx=0;entryDy=0;" edge="1" parent="F0TrI8xR8DrndN0UvMLU-38" source="F0TrI8xR8DrndN0UvMLU-30" target="F0TrI8xR8DrndN0UvMLU-27">
          <mxGeometry relative="1" as="geometry" />
        </mxCell>
        <mxCell id="F0TrI8xR8DrndN0UvMLU-30" value="打包" style="rounded=0;whiteSpace=wrap;html=1;" vertex="1" parent="F0TrI8xR8DrndN0UvMLU-38">
          <mxGeometry x="30" y="410" width="120" height="60" as="geometry" />
        </mxCell>
        <mxCell id="F0TrI8xR8DrndN0UvMLU-31" style="edgeStyle=orthogonalEdgeStyle;rounded=0;orthogonalLoop=1;jettySize=auto;html=1;exitX=0.5;exitY=1;exitDx=0;exitDy=0;entryX=0.5;entryY=0;entryDx=0;entryDy=0;" edge="1" parent="F0TrI8xR8DrndN0UvMLU-38" source="F0TrI8xR8DrndN0UvMLU-11" target="F0TrI8xR8DrndN0UvMLU-30">
          <mxGeometry relative="1" as="geometry" />
        </mxCell>
        <mxCell id="F0TrI8xR8DrndN0UvMLU-58" style="edgeStyle=orthogonalEdgeStyle;rounded=0;orthogonalLoop=1;jettySize=auto;html=1;exitX=0.5;exitY=1;exitDx=0;exitDy=0;entryX=0.5;entryY=0;entryDx=0;entryDy=0;" edge="1" parent="1" source="F0TrI8xR8DrndN0UvMLU-59" target="F0TrI8xR8DrndN0UvMLU-61">
          <mxGeometry relative="1" as="geometry" />
        </mxCell>
        <mxCell id="F0TrI8xR8DrndN0UvMLU-59" value="前端页面渲染" style="rounded=0;whiteSpace=wrap;html=1;" vertex="1" parent="1">
          <mxGeometry x="60" y="705" width="120" height="60" as="geometry" />
        </mxCell>
        <mxCell id="F0TrI8xR8DrndN0UvMLU-60" style="edgeStyle=orthogonalEdgeStyle;rounded=0;orthogonalLoop=1;jettySize=auto;html=1;exitX=0.5;exitY=1;exitDx=0;exitDy=0;" edge="1" parent="1" source="F0TrI8xR8DrndN0UvMLU-61" target="F0TrI8xR8DrndN0UvMLU-63">
          <mxGeometry relative="1" as="geometry" />
        </mxCell>
        <mxCell id="F0TrI8xR8DrndN0UvMLU-61" value="发送http请求" style="rounded=0;whiteSpace=wrap;html=1;" vertex="1" parent="1">
          <mxGeometry x="60" y="785" width="120" height="60" as="geometry" />
        </mxCell>
        <mxCell id="F0TrI8xR8DrndN0UvMLU-85" style="edgeStyle=orthogonalEdgeStyle;rounded=0;orthogonalLoop=1;jettySize=auto;html=1;exitX=0.5;exitY=1;exitDx=0;exitDy=0;entryX=0.5;entryY=0;entryDx=0;entryDy=0;" edge="1" parent="1" source="F0TrI8xR8DrndN0UvMLU-63" target="F0TrI8xR8DrndN0UvMLU-67">
          <mxGeometry relative="1" as="geometry" />
        </mxCell>
        <mxCell id="F0TrI8xR8DrndN0UvMLU-63" value="后端检索数据库" style="rounded=0;whiteSpace=wrap;html=1;" vertex="1" parent="1">
          <mxGeometry x="60" y="865" width="120" height="55" as="geometry" />
        </mxCell>
        <mxCell id="F0TrI8xR8DrndN0UvMLU-87" style="edgeStyle=orthogonalEdgeStyle;rounded=0;orthogonalLoop=1;jettySize=auto;html=1;exitX=0.5;exitY=1;exitDx=0;exitDy=0;entryX=0.5;entryY=0;entryDx=0;entryDy=0;" edge="1" parent="1" source="F0TrI8xR8DrndN0UvMLU-65" target="F0TrI8xR8DrndN0UvMLU-68">
          <mxGeometry relative="1" as="geometry" />
        </mxCell>
        <mxCell id="F0TrI8xR8DrndN0UvMLU-65" value="返回前端" style="rounded=0;whiteSpace=wrap;html=1;" vertex="1" parent="1">
          <mxGeometry x="60" y="1020" width="120" height="60" as="geometry" />
        </mxCell>
        <mxCell id="F0TrI8xR8DrndN0UvMLU-86" style="edgeStyle=orthogonalEdgeStyle;rounded=0;orthogonalLoop=1;jettySize=auto;html=1;exitX=0.5;exitY=1;exitDx=0;exitDy=0;entryX=0.5;entryY=0;entryDx=0;entryDy=0;" edge="1" parent="1" source="F0TrI8xR8DrndN0UvMLU-67" target="F0TrI8xR8DrndN0UvMLU-65">
          <mxGeometry relative="1" as="geometry" />
        </mxCell>
        <mxCell id="F0TrI8xR8DrndN0UvMLU-67" value="规范计算逻辑&lt;br&gt;封装相关函数" style="rounded=0;whiteSpace=wrap;html=1;" vertex="1" parent="1">
          <mxGeometry x="60" y="940" width="120" height="60" as="geometry" />
        </mxCell>
        <mxCell id="F0TrI8xR8DrndN0UvMLU-89" style="edgeStyle=orthogonalEdgeStyle;rounded=0;orthogonalLoop=1;jettySize=auto;html=1;exitX=1;exitY=0.5;exitDx=0;exitDy=0;entryX=0;entryY=0.5;entryDx=0;entryDy=0;" edge="1" parent="1" source="F0TrI8xR8DrndN0UvMLU-68" target="F0TrI8xR8DrndN0UvMLU-70">
          <mxGeometry relative="1" as="geometry" />
        </mxCell>
        <mxCell id="F0TrI8xR8DrndN0UvMLU-68" value="基于数据进行渲染&lt;br&gt;及交互" style="rounded=0;whiteSpace=wrap;html=1;" vertex="1" parent="1">
          <mxGeometry x="60" y="1100" width="120" height="60" as="geometry" />
        </mxCell>
        <mxCell id="F0TrI8xR8DrndN0UvMLU-70" value="只做非计算性的&lt;br&gt;数据加工处理" style="shape=parallelogram;perimeter=parallelogramPerimeter;whiteSpace=wrap;html=1;fixedSize=1;" vertex="1" parent="1">
          <mxGeometry x="210" y="1100" width="120" height="60" as="geometry" />
        </mxCell>
        <mxCell id="F0TrI8xR8DrndN0UvMLU-78" style="edgeStyle=orthogonalEdgeStyle;rounded=0;orthogonalLoop=1;jettySize=auto;html=1;exitX=0.5;exitY=1;exitDx=0;exitDy=0;entryX=0.5;entryY=0;entryDx=0;entryDy=0;" edge="1" parent="1" source="F0TrI8xR8DrndN0UvMLU-71" target="F0TrI8xR8DrndN0UvMLU-72">
          <mxGeometry relative="1" as="geometry" />
        </mxCell>
        <mxCell id="F0TrI8xR8DrndN0UvMLU-71" value="出现数据异常" style="rounded=0;whiteSpace=wrap;html=1;" vertex="1" parent="1">
          <mxGeometry x="480" y="705" width="120" height="60" as="geometry" />
        </mxCell>
        <mxCell id="F0TrI8xR8DrndN0UvMLU-79" style="edgeStyle=orthogonalEdgeStyle;rounded=0;orthogonalLoop=1;jettySize=auto;html=1;exitX=0.5;exitY=1;exitDx=0;exitDy=0;entryX=0.5;entryY=0;entryDx=0;entryDy=0;" edge="1" parent="1" source="F0TrI8xR8DrndN0UvMLU-72" target="F0TrI8xR8DrndN0UvMLU-73">
          <mxGeometry relative="1" as="geometry" />
        </mxCell>
        <mxCell id="F0TrI8xR8DrndN0UvMLU-72" value="确认接口返回数据" style="rounded=0;whiteSpace=wrap;html=1;" vertex="1" parent="1">
          <mxGeometry x="480" y="785" width="120" height="60" as="geometry" />
        </mxCell>
        <mxCell id="F0TrI8xR8DrndN0UvMLU-80" style="edgeStyle=orthogonalEdgeStyle;rounded=0;orthogonalLoop=1;jettySize=auto;html=1;exitX=0.5;exitY=1;exitDx=0;exitDy=0;entryX=0.5;entryY=0;entryDx=0;entryDy=0;" edge="1" parent="1" source="F0TrI8xR8DrndN0UvMLU-73" target="F0TrI8xR8DrndN0UvMLU-74">
          <mxGeometry relative="1" as="geometry" />
        </mxCell>
        <mxCell id="F0TrI8xR8DrndN0UvMLU-81" style="edgeStyle=orthogonalEdgeStyle;rounded=0;orthogonalLoop=1;jettySize=auto;html=1;exitX=1;exitY=0.5;exitDx=0;exitDy=0;entryX=0;entryY=0.5;entryDx=0;entryDy=0;" edge="1" parent="1" source="F0TrI8xR8DrndN0UvMLU-73" target="F0TrI8xR8DrndN0UvMLU-76">
          <mxGeometry relative="1" as="geometry" />
        </mxCell>
        <mxCell id="F0TrI8xR8DrndN0UvMLU-73" value="是否正常" style="rhombus;whiteSpace=wrap;html=1;" vertex="1" parent="1">
          <mxGeometry x="500" y="860" width="80" height="80" as="geometry" />
        </mxCell>
        <mxCell id="F0TrI8xR8DrndN0UvMLU-83" style="edgeStyle=orthogonalEdgeStyle;rounded=0;orthogonalLoop=1;jettySize=auto;html=1;exitX=0.5;exitY=1;exitDx=0;exitDy=0;entryX=0.5;entryY=0;entryDx=0;entryDy=0;" edge="1" parent="1" source="F0TrI8xR8DrndN0UvMLU-74" target="F0TrI8xR8DrndN0UvMLU-75">
          <mxGeometry relative="1" as="geometry" />
        </mxCell>
        <mxCell id="F0TrI8xR8DrndN0UvMLU-74" value="后端修复计算逻辑" style="rounded=0;whiteSpace=wrap;html=1;" vertex="1" parent="1">
          <mxGeometry x="480" y="960" width="120" height="60" as="geometry" />
        </mxCell>
        <mxCell id="F0TrI8xR8DrndN0UvMLU-75" value="重新部署" style="rounded=0;whiteSpace=wrap;html=1;" vertex="1" parent="1">
          <mxGeometry x="480" y="1050" width="120" height="60" as="geometry" />
        </mxCell>
        <mxCell id="F0TrI8xR8DrndN0UvMLU-82" style="edgeStyle=orthogonalEdgeStyle;rounded=0;orthogonalLoop=1;jettySize=auto;html=1;exitX=0.5;exitY=1;exitDx=0;exitDy=0;entryX=0.5;entryY=0;entryDx=0;entryDy=0;" edge="1" parent="1" source="F0TrI8xR8DrndN0UvMLU-76" target="F0TrI8xR8DrndN0UvMLU-77">
          <mxGeometry relative="1" as="geometry" />
        </mxCell>
        <mxCell id="F0TrI8xR8DrndN0UvMLU-76" value="前端展示/加工问题" style="rounded=0;whiteSpace=wrap;html=1;" vertex="1" parent="1">
          <mxGeometry x="630" y="870" width="120" height="60" as="geometry" />
        </mxCell>
        <mxCell id="F0TrI8xR8DrndN0UvMLU-84" style="edgeStyle=orthogonalEdgeStyle;rounded=0;orthogonalLoop=1;jettySize=auto;html=1;exitX=0.5;exitY=1;exitDx=0;exitDy=0;entryX=1;entryY=0.5;entryDx=0;entryDy=0;" edge="1" parent="1" source="F0TrI8xR8DrndN0UvMLU-77" target="F0TrI8xR8DrndN0UvMLU-75">
          <mxGeometry relative="1" as="geometry" />
        </mxCell>
        <mxCell id="F0TrI8xR8DrndN0UvMLU-77" value="构建" style="rounded=0;whiteSpace=wrap;html=1;" vertex="1" parent="1">
          <mxGeometry x="630" y="960" width="120" height="60" as="geometry" />
        </mxCell>
        <mxCell id="F0TrI8xR8DrndN0UvMLU-93" value="后端关注数据准确性和处理逻辑&lt;br&gt;前端关注页面展示、交互体验" style="text;html=1;strokeColor=none;fillColor=none;align=center;verticalAlign=middle;whiteSpace=wrap;rounded=0;" vertex="1" parent="1">
          <mxGeometry x="300" y="620" width="200" height="30" as="geometry" />
        </mxCell>
      </root>
    </mxGraphModel>
  </diagram>
  <diagram id="W4luMJzeP0k6cNK0f8G5" name="测试及鲁棒性">
    <mxGraphModel dx="962" dy="658" grid="1" gridSize="10" guides="1" tooltips="1" connect="1" arrows="1" fold="1" page="1" pageScale="1" pageWidth="827" pageHeight="1169" math="0" shadow="0">
      <root>
        <mxCell id="0" />
        <mxCell id="1" parent="0" />
        <mxCell id="bs-bGwhsJooTEFQ1JRaZ-40" value="" style="group" vertex="1" connectable="0" parent="1">
          <mxGeometry y="80" width="330" height="360" as="geometry" />
        </mxCell>
        <mxCell id="bs-bGwhsJooTEFQ1JRaZ-38" value="" style="rounded=0;whiteSpace=wrap;html=1;" vertex="1" parent="bs-bGwhsJooTEFQ1JRaZ-40">
          <mxGeometry width="330" height="360" as="geometry" />
        </mxCell>
        <mxCell id="T8hCoiMe9nGfxBdIPhMJ-1" value="版本发布" style="rounded=0;whiteSpace=wrap;html=1;" vertex="1" parent="bs-bGwhsJooTEFQ1JRaZ-40">
          <mxGeometry x="100" y="120" width="120" height="60" as="geometry" />
        </mxCell>
        <mxCell id="bs-bGwhsJooTEFQ1JRaZ-1" value="测试环境部署" style="rounded=0;whiteSpace=wrap;html=1;" vertex="1" parent="bs-bGwhsJooTEFQ1JRaZ-40">
          <mxGeometry x="100" y="200" width="120" height="60" as="geometry" />
        </mxCell>
        <mxCell id="bs-bGwhsJooTEFQ1JRaZ-22" style="edgeStyle=orthogonalEdgeStyle;rounded=0;orthogonalLoop=1;jettySize=auto;html=1;exitX=0.5;exitY=1;exitDx=0;exitDy=0;entryX=0.5;entryY=0;entryDx=0;entryDy=0;" edge="1" parent="bs-bGwhsJooTEFQ1JRaZ-40" source="T8hCoiMe9nGfxBdIPhMJ-1" target="bs-bGwhsJooTEFQ1JRaZ-1">
          <mxGeometry relative="1" as="geometry" />
        </mxCell>
        <mxCell id="bs-bGwhsJooTEFQ1JRaZ-2" value="人工功能检查及测试" style="rounded=0;whiteSpace=wrap;html=1;" vertex="1" parent="bs-bGwhsJooTEFQ1JRaZ-40">
          <mxGeometry x="100" y="280" width="120" height="60" as="geometry" />
        </mxCell>
        <mxCell id="bs-bGwhsJooTEFQ1JRaZ-23" style="edgeStyle=orthogonalEdgeStyle;rounded=0;orthogonalLoop=1;jettySize=auto;html=1;exitX=0.5;exitY=1;exitDx=0;exitDy=0;entryX=0.5;entryY=0;entryDx=0;entryDy=0;" edge="1" parent="bs-bGwhsJooTEFQ1JRaZ-40" source="bs-bGwhsJooTEFQ1JRaZ-1" target="bs-bGwhsJooTEFQ1JRaZ-2">
          <mxGeometry relative="1" as="geometry" />
        </mxCell>
        <mxCell id="bs-bGwhsJooTEFQ1JRaZ-20" style="edgeStyle=orthogonalEdgeStyle;rounded=0;orthogonalLoop=1;jettySize=auto;html=1;exitX=0.5;exitY=1;exitDx=0;exitDy=0;entryX=0;entryY=0.5;entryDx=0;entryDy=0;" edge="1" parent="bs-bGwhsJooTEFQ1JRaZ-40" source="bs-bGwhsJooTEFQ1JRaZ-4" target="T8hCoiMe9nGfxBdIPhMJ-1">
          <mxGeometry relative="1" as="geometry" />
        </mxCell>
        <mxCell id="bs-bGwhsJooTEFQ1JRaZ-4" value="前端代码编写&lt;br&gt;提交打码&lt;br&gt;构建打包" style="rounded=0;whiteSpace=wrap;html=1;" vertex="1" parent="bs-bGwhsJooTEFQ1JRaZ-40">
          <mxGeometry x="10" y="30" width="120" height="60" as="geometry" />
        </mxCell>
        <mxCell id="bs-bGwhsJooTEFQ1JRaZ-21" style="edgeStyle=orthogonalEdgeStyle;rounded=0;orthogonalLoop=1;jettySize=auto;html=1;exitX=0.5;exitY=1;exitDx=0;exitDy=0;entryX=1;entryY=0.5;entryDx=0;entryDy=0;" edge="1" parent="bs-bGwhsJooTEFQ1JRaZ-40" source="bs-bGwhsJooTEFQ1JRaZ-5" target="T8hCoiMe9nGfxBdIPhMJ-1">
          <mxGeometry relative="1" as="geometry" />
        </mxCell>
        <mxCell id="bs-bGwhsJooTEFQ1JRaZ-5" value="后端代码编写&lt;br&gt;提交代码&lt;br&gt;构建打包" style="rounded=0;whiteSpace=wrap;html=1;" vertex="1" parent="bs-bGwhsJooTEFQ1JRaZ-40">
          <mxGeometry x="190" y="30" width="120" height="60" as="geometry" />
        </mxCell>
        <mxCell id="bs-bGwhsJooTEFQ1JRaZ-41" value="" style="group" vertex="1" connectable="0" parent="1">
          <mxGeometry x="413" y="80" width="610" height="550" as="geometry" />
        </mxCell>
        <mxCell id="bs-bGwhsJooTEFQ1JRaZ-39" value="" style="rounded=0;whiteSpace=wrap;html=1;" vertex="1" parent="bs-bGwhsJooTEFQ1JRaZ-41">
          <mxGeometry width="610" height="550" as="geometry" />
        </mxCell>
        <mxCell id="bs-bGwhsJooTEFQ1JRaZ-6" value="前端代码编写" style="rounded=0;whiteSpace=wrap;html=1;" vertex="1" parent="bs-bGwhsJooTEFQ1JRaZ-41">
          <mxGeometry x="20" y="20" width="120" height="60" as="geometry" />
        </mxCell>
        <mxCell id="bs-bGwhsJooTEFQ1JRaZ-7" value="unit测试（jest）" style="rounded=0;whiteSpace=wrap;html=1;" vertex="1" parent="bs-bGwhsJooTEFQ1JRaZ-41">
          <mxGeometry x="20" y="120" width="120" height="60" as="geometry" />
        </mxCell>
        <mxCell id="bs-bGwhsJooTEFQ1JRaZ-24" style="edgeStyle=orthogonalEdgeStyle;rounded=0;orthogonalLoop=1;jettySize=auto;html=1;exitX=0.5;exitY=1;exitDx=0;exitDy=0;entryX=0.5;entryY=0;entryDx=0;entryDy=0;" edge="1" parent="bs-bGwhsJooTEFQ1JRaZ-41" source="bs-bGwhsJooTEFQ1JRaZ-6" target="bs-bGwhsJooTEFQ1JRaZ-7">
          <mxGeometry relative="1" as="geometry" />
        </mxCell>
        <mxCell id="bs-bGwhsJooTEFQ1JRaZ-9" value="e2e测试（cypress）" style="rounded=0;whiteSpace=wrap;html=1;" vertex="1" parent="bs-bGwhsJooTEFQ1JRaZ-41">
          <mxGeometry x="20" y="220" width="120" height="60" as="geometry" />
        </mxCell>
        <mxCell id="bs-bGwhsJooTEFQ1JRaZ-27" style="edgeStyle=orthogonalEdgeStyle;rounded=0;orthogonalLoop=1;jettySize=auto;html=1;exitX=0.5;exitY=1;exitDx=0;exitDy=0;" edge="1" parent="bs-bGwhsJooTEFQ1JRaZ-41" source="bs-bGwhsJooTEFQ1JRaZ-7" target="bs-bGwhsJooTEFQ1JRaZ-9">
          <mxGeometry relative="1" as="geometry" />
        </mxCell>
        <mxCell id="bs-bGwhsJooTEFQ1JRaZ-10" value="后端代码编写" style="rounded=0;whiteSpace=wrap;html=1;" vertex="1" parent="bs-bGwhsJooTEFQ1JRaZ-41">
          <mxGeometry x="240" y="20" width="120" height="60" as="geometry" />
        </mxCell>
        <mxCell id="bs-bGwhsJooTEFQ1JRaZ-11" value="unit测试（jest）" style="rounded=0;whiteSpace=wrap;html=1;" vertex="1" parent="bs-bGwhsJooTEFQ1JRaZ-41">
          <mxGeometry x="240" y="120" width="120" height="60" as="geometry" />
        </mxCell>
        <mxCell id="bs-bGwhsJooTEFQ1JRaZ-25" style="edgeStyle=orthogonalEdgeStyle;rounded=0;orthogonalLoop=1;jettySize=auto;html=1;exitX=0.5;exitY=1;exitDx=0;exitDy=0;entryX=0.5;entryY=0;entryDx=0;entryDy=0;" edge="1" parent="bs-bGwhsJooTEFQ1JRaZ-41" source="bs-bGwhsJooTEFQ1JRaZ-10" target="bs-bGwhsJooTEFQ1JRaZ-11">
          <mxGeometry relative="1" as="geometry" />
        </mxCell>
        <mxCell id="bs-bGwhsJooTEFQ1JRaZ-12" value="接口测试" style="rounded=0;whiteSpace=wrap;html=1;" vertex="1" parent="bs-bGwhsJooTEFQ1JRaZ-41">
          <mxGeometry x="240" y="220" width="120" height="60" as="geometry" />
        </mxCell>
        <mxCell id="bs-bGwhsJooTEFQ1JRaZ-26" style="edgeStyle=orthogonalEdgeStyle;rounded=0;orthogonalLoop=1;jettySize=auto;html=1;exitX=0.5;exitY=1;exitDx=0;exitDy=0;entryX=0.5;entryY=0;entryDx=0;entryDy=0;" edge="1" parent="bs-bGwhsJooTEFQ1JRaZ-41" source="bs-bGwhsJooTEFQ1JRaZ-11" target="bs-bGwhsJooTEFQ1JRaZ-12">
          <mxGeometry relative="1" as="geometry" />
        </mxCell>
        <mxCell id="bs-bGwhsJooTEFQ1JRaZ-13" value="apifox提供的自动化测试方案" style="rounded=0;whiteSpace=wrap;html=1;" vertex="1" parent="bs-bGwhsJooTEFQ1JRaZ-41">
          <mxGeometry x="410" y="180" width="180" height="60" as="geometry" />
        </mxCell>
        <mxCell id="bs-bGwhsJooTEFQ1JRaZ-30" style="edgeStyle=orthogonalEdgeStyle;rounded=0;orthogonalLoop=1;jettySize=auto;html=1;exitX=1;exitY=0.5;exitDx=0;exitDy=0;entryX=0;entryY=0.5;entryDx=0;entryDy=0;" edge="1" parent="bs-bGwhsJooTEFQ1JRaZ-41" source="bs-bGwhsJooTEFQ1JRaZ-12" target="bs-bGwhsJooTEFQ1JRaZ-13">
          <mxGeometry relative="1" as="geometry" />
        </mxCell>
        <mxCell id="bs-bGwhsJooTEFQ1JRaZ-14" value="另外引用一套接口测试用例流程" style="rounded=0;whiteSpace=wrap;html=1;" vertex="1" parent="bs-bGwhsJooTEFQ1JRaZ-41">
          <mxGeometry x="410" y="260" width="190" height="60" as="geometry" />
        </mxCell>
        <mxCell id="bs-bGwhsJooTEFQ1JRaZ-31" style="edgeStyle=orthogonalEdgeStyle;rounded=0;orthogonalLoop=1;jettySize=auto;html=1;exitX=1;exitY=0.5;exitDx=0;exitDy=0;entryX=0;entryY=0.5;entryDx=0;entryDy=0;" edge="1" parent="bs-bGwhsJooTEFQ1JRaZ-41" source="bs-bGwhsJooTEFQ1JRaZ-12" target="bs-bGwhsJooTEFQ1JRaZ-14">
          <mxGeometry relative="1" as="geometry" />
        </mxCell>
        <mxCell id="bs-bGwhsJooTEFQ1JRaZ-17" value="版本发布构建" style="rounded=0;whiteSpace=wrap;html=1;" vertex="1" parent="bs-bGwhsJooTEFQ1JRaZ-41">
          <mxGeometry x="130" y="310" width="120" height="60" as="geometry" />
        </mxCell>
        <mxCell id="bs-bGwhsJooTEFQ1JRaZ-28" style="edgeStyle=orthogonalEdgeStyle;rounded=0;orthogonalLoop=1;jettySize=auto;html=1;exitX=0.5;exitY=1;exitDx=0;exitDy=0;entryX=0;entryY=0.5;entryDx=0;entryDy=0;" edge="1" parent="bs-bGwhsJooTEFQ1JRaZ-41" source="bs-bGwhsJooTEFQ1JRaZ-9" target="bs-bGwhsJooTEFQ1JRaZ-17">
          <mxGeometry relative="1" as="geometry" />
        </mxCell>
        <mxCell id="bs-bGwhsJooTEFQ1JRaZ-29" style="edgeStyle=orthogonalEdgeStyle;rounded=0;orthogonalLoop=1;jettySize=auto;html=1;exitX=0.5;exitY=1;exitDx=0;exitDy=0;entryX=1;entryY=0.5;entryDx=0;entryDy=0;" edge="1" parent="bs-bGwhsJooTEFQ1JRaZ-41" source="bs-bGwhsJooTEFQ1JRaZ-12" target="bs-bGwhsJooTEFQ1JRaZ-17">
          <mxGeometry relative="1" as="geometry" />
        </mxCell>
        <mxCell id="bs-bGwhsJooTEFQ1JRaZ-18" value="测试环境部署" style="rounded=0;whiteSpace=wrap;html=1;" vertex="1" parent="bs-bGwhsJooTEFQ1JRaZ-41">
          <mxGeometry x="130" y="390" width="120" height="60" as="geometry" />
        </mxCell>
        <mxCell id="bs-bGwhsJooTEFQ1JRaZ-32" style="edgeStyle=orthogonalEdgeStyle;rounded=0;orthogonalLoop=1;jettySize=auto;html=1;exitX=0.5;exitY=1;exitDx=0;exitDy=0;entryX=0.5;entryY=0;entryDx=0;entryDy=0;" edge="1" parent="bs-bGwhsJooTEFQ1JRaZ-41" source="bs-bGwhsJooTEFQ1JRaZ-17" target="bs-bGwhsJooTEFQ1JRaZ-18">
          <mxGeometry relative="1" as="geometry" />
        </mxCell>
        <mxCell id="bs-bGwhsJooTEFQ1JRaZ-19" value="人工检查页面样式、展示效果" style="rounded=0;whiteSpace=wrap;html=1;" vertex="1" parent="bs-bGwhsJooTEFQ1JRaZ-41">
          <mxGeometry x="130" y="470" width="120" height="60" as="geometry" />
        </mxCell>
        <mxCell id="bs-bGwhsJooTEFQ1JRaZ-33" style="edgeStyle=orthogonalEdgeStyle;rounded=0;orthogonalLoop=1;jettySize=auto;html=1;exitX=0.5;exitY=1;exitDx=0;exitDy=0;entryX=0.5;entryY=0;entryDx=0;entryDy=0;" edge="1" parent="bs-bGwhsJooTEFQ1JRaZ-41" source="bs-bGwhsJooTEFQ1JRaZ-18" target="bs-bGwhsJooTEFQ1JRaZ-19">
          <mxGeometry relative="1" as="geometry" />
        </mxCell>
      </root>
    </mxGraphModel>
  </diagram>
  <diagram id="MU4KIs53ilJ0xRiFxN55" name="版本控制流程讨论">
    <mxGraphModel dx="1789" dy="658" grid="1" gridSize="10" guides="1" tooltips="1" connect="1" arrows="1" fold="1" page="1" pageScale="1" pageWidth="827" pageHeight="1169" math="0" shadow="0">
      <root>
        <mxCell id="0" />
        <mxCell id="1" parent="0" />
        <mxCell id="ht7iGj36LiyC-BNBBPWV-3" value="1.0-rc" style="rounded=0;whiteSpace=wrap;html=1;" vertex="1" parent="1">
          <mxGeometry x="230" y="110" width="120" height="60" as="geometry" />
        </mxCell>
        <mxCell id="ht7iGj36LiyC-BNBBPWV-4" value="1.1-rc" style="rounded=0;whiteSpace=wrap;html=1;" vertex="1" parent="1">
          <mxGeometry x="230" y="200" width="120" height="60" as="geometry" />
        </mxCell>
        <mxCell id="ht7iGj36LiyC-BNBBPWV-5" value="项目A（已交付）&lt;br&gt;1.0-rc" style="ellipse;shape=cloud;whiteSpace=wrap;html=1;" vertex="1" parent="1">
          <mxGeometry x="410" y="100" width="160" height="80" as="geometry" />
        </mxCell>
        <mxCell id="ht7iGj36LiyC-BNBBPWV-6" value="项目B（快速迭代中）&lt;br&gt;1.3-rc" style="ellipse;shape=cloud;whiteSpace=wrap;html=1;" vertex="1" parent="1">
          <mxGeometry x="410" y="350" width="190" height="80" as="geometry" />
        </mxCell>
        <mxCell id="ht7iGj36LiyC-BNBBPWV-7" value="1.2-rc" style="rounded=0;whiteSpace=wrap;html=1;" vertex="1" parent="1">
          <mxGeometry x="230" y="280" width="120" height="60" as="geometry" />
        </mxCell>
        <mxCell id="ht7iGj36LiyC-BNBBPWV-8" value="1.3-rc" style="rounded=0;whiteSpace=wrap;html=1;" vertex="1" parent="1">
          <mxGeometry x="230" y="360" width="120" height="60" as="geometry" />
        </mxCell>
        <mxCell id="ht7iGj36LiyC-BNBBPWV-9" value="1.4-rc" style="rounded=0;whiteSpace=wrap;html=1;" vertex="1" parent="1">
          <mxGeometry x="230" y="450" width="120" height="60" as="geometry" />
        </mxCell>
        <mxCell id="ht7iGj36LiyC-BNBBPWV-10" value="项目B（快速迭代中）&lt;br&gt;1.4-rc&lt;br&gt;正常更新需求" style="ellipse;shape=cloud;whiteSpace=wrap;html=1;" vertex="1" parent="1">
          <mxGeometry x="410" y="440" width="190" height="80" as="geometry" />
        </mxCell>
        <mxCell id="ht7iGj36LiyC-BNBBPWV-11" value="项目A（已交付）&lt;br&gt;1.4-rc&lt;br&gt;修复问题" style="ellipse;shape=cloud;whiteSpace=wrap;html=1;" vertex="1" parent="1">
          <mxGeometry x="620" y="440" width="160" height="80" as="geometry" />
        </mxCell>
        <mxCell id="ht7iGj36LiyC-BNBBPWV-12" value="大版本升级&lt;br&gt;新功能添加&lt;br&gt;数据结构改动" style="rounded=0;whiteSpace=wrap;html=1;" vertex="1" parent="1">
          <mxGeometry x="90" y="280" width="120" height="60" as="geometry" />
        </mxCell>
        <mxCell id="ht7iGj36LiyC-BNBBPWV-13" value="更新项目b需求&lt;br&gt;修复项目A问题" style="rounded=0;whiteSpace=wrap;html=1;" vertex="1" parent="1">
          <mxGeometry x="90" y="450" width="120" height="60" as="geometry" />
        </mxCell>
        <mxCell id="ht7iGj36LiyC-BNBBPWV-14" value="1.0-rc" style="rounded=0;whiteSpace=wrap;html=1;" vertex="1" parent="1">
          <mxGeometry x="370" y="610" width="120" height="60" as="geometry" />
        </mxCell>
        <mxCell id="ht7iGj36LiyC-BNBBPWV-15" value="1.1-rc" style="rounded=0;whiteSpace=wrap;html=1;" vertex="1" parent="1">
          <mxGeometry x="370" y="700" width="120" height="60" as="geometry" />
        </mxCell>
        <mxCell id="ht7iGj36LiyC-BNBBPWV-16" value="项目A（已交付）&lt;br&gt;1.0-rc" style="ellipse;shape=cloud;whiteSpace=wrap;html=1;" vertex="1" parent="1">
          <mxGeometry x="550" y="600" width="160" height="80" as="geometry" />
        </mxCell>
        <mxCell id="ht7iGj36LiyC-BNBBPWV-17" value="项目B（快速迭代中）&lt;br&gt;1.3-rc" style="ellipse;shape=cloud;whiteSpace=wrap;html=1;" vertex="1" parent="1">
          <mxGeometry x="550" y="850" width="190" height="80" as="geometry" />
        </mxCell>
        <mxCell id="ht7iGj36LiyC-BNBBPWV-18" value="1.2-rc" style="rounded=0;whiteSpace=wrap;html=1;" vertex="1" parent="1">
          <mxGeometry x="370" y="780" width="120" height="60" as="geometry" />
        </mxCell>
        <mxCell id="ht7iGj36LiyC-BNBBPWV-19" value="1.3-rc" style="rounded=0;whiteSpace=wrap;html=1;" vertex="1" parent="1">
          <mxGeometry x="370" y="860" width="120" height="60" as="geometry" />
        </mxCell>
        <mxCell id="ht7iGj36LiyC-BNBBPWV-20" value="1.4-rc" style="rounded=0;whiteSpace=wrap;html=1;" vertex="1" parent="1">
          <mxGeometry x="370" y="950" width="120" height="60" as="geometry" />
        </mxCell>
        <mxCell id="ht7iGj36LiyC-BNBBPWV-21" value="项目B（快速迭代中）&lt;br&gt;1.4-rc&lt;br&gt;正常更新需求" style="ellipse;shape=cloud;whiteSpace=wrap;html=1;" vertex="1" parent="1">
          <mxGeometry x="550" y="940" width="190" height="80" as="geometry" />
        </mxCell>
        <mxCell id="ht7iGj36LiyC-BNBBPWV-22" value="项目A（已交付）&lt;br&gt;1.0-rc2&lt;br&gt;修复问题" style="ellipse;shape=cloud;whiteSpace=wrap;html=1;" vertex="1" parent="1">
          <mxGeometry x="-100" y="600" width="160" height="80" as="geometry" />
        </mxCell>
        <mxCell id="ht7iGj36LiyC-BNBBPWV-23" value="大版本升级&lt;br&gt;新功能添加&lt;br&gt;数据结构改动" style="rounded=0;whiteSpace=wrap;html=1;" vertex="1" parent="1">
          <mxGeometry x="230" y="780" width="120" height="60" as="geometry" />
        </mxCell>
        <mxCell id="ht7iGj36LiyC-BNBBPWV-24" value="更新项目b需求&lt;br&gt;合并 1.0-rc2 中修复的bug" style="rounded=0;whiteSpace=wrap;html=1;" vertex="1" parent="1">
          <mxGeometry x="190" y="950" width="160" height="60" as="geometry" />
        </mxCell>
        <mxCell id="ht7iGj36LiyC-BNBBPWV-25" value="1.0-rc1" style="rounded=0;whiteSpace=wrap;html=1;" vertex="1" parent="1">
          <mxGeometry x="220" y="610" width="120" height="60" as="geometry" />
        </mxCell>
        <mxCell id="ht7iGj36LiyC-BNBBPWV-26" value="1.0-rc2" style="rounded=0;whiteSpace=wrap;html=1;" vertex="1" parent="1">
          <mxGeometry x="80" y="610" width="120" height="60" as="geometry" />
        </mxCell>
        <mxCell id="ht7iGj36LiyC-BNBBPWV-27" value="项目C（已交付）&lt;br&gt;1.1-rc" style="ellipse;shape=cloud;whiteSpace=wrap;html=1;" vertex="1" parent="1">
          <mxGeometry x="550" y="690" width="160" height="80" as="geometry" />
        </mxCell>
        <mxCell id="ht7iGj36LiyC-BNBBPWV-28" value="项目C（已交付）&lt;br&gt;1.5.0-alpha" style="ellipse;shape=cloud;whiteSpace=wrap;html=1;" vertex="1" parent="1">
          <mxGeometry x="550" y="1050" width="160" height="80" as="geometry" />
        </mxCell>
        <mxCell id="ht7iGj36LiyC-BNBBPWV-29" value="1.5.0-alpha" style="rounded=0;whiteSpace=wrap;html=1;" vertex="1" parent="1">
          <mxGeometry x="370" y="1060" width="120" height="60" as="geometry" />
        </mxCell>
        <mxCell id="ht7iGj36LiyC-BNBBPWV-30" value="项目C有新需求&lt;br&gt;并且需求是可以通用性的" style="rounded=0;whiteSpace=wrap;html=1;" vertex="1" parent="1">
          <mxGeometry x="230" y="1060" width="120" height="60" as="geometry" />
        </mxCell>
        <mxCell id="ht7iGj36LiyC-BNBBPWV-31" value="1.1-rc1" style="rounded=0;whiteSpace=wrap;html=1;" vertex="1" parent="1">
          <mxGeometry x="220" y="700" width="120" height="60" as="geometry" />
        </mxCell>
        <mxCell id="ht7iGj36LiyC-BNBBPWV-32" value="项目C（已交付）&lt;br&gt;1.1-rc1&lt;br&gt;新需求只为&lt;br&gt;这个项目单独开发" style="ellipse;shape=cloud;whiteSpace=wrap;html=1;" vertex="1" parent="1">
          <mxGeometry x="40" y="675" width="160" height="110" as="geometry" />
        </mxCell>
      </root>
    </mxGraphModel>
  </diagram>
</mxfile>
